STARTFONT 2.1
FONT -FontForge-Montserrat Alternates Medium-Medium-R-Normal--22-210-75-75-P-129-ISO10646-1
SIZE 21 75 75
FONTBOUNDINGBOX 27 23 -2 -4
COMMENT "Generated by fontforge, http://fontforge.sourceforge.net"
COMMENT "Copyright 2011 The Montserrat Project Authors (https://github.com/JulietaUla/Montserrat)"
STARTPROPERTIES 39
FOUNDRY "FontForge"
FAMILY_NAME "Montserrat Alternates Medium"
WEIGHT_NAME "Medium"
SLANT "R"
SETWIDTH_NAME "Normal"
ADD_STYLE_NAME ""
PIXEL_SIZE 22
POINT_SIZE 210
RESOLUTION_X 75
RESOLUTION_Y 75
SPACING "P"
AVERAGE_WIDTH 129
CHARSET_REGISTRY "ISO10646"
CHARSET_ENCODING "1"
FONTNAME_REGISTRY ""
CHARSET_COLLECTIONS "ISO10646-1"
FONT_NAME "MontserratAlternates-Medium"
FACE_NAME "Montserrat Alternates Medium"
COPYRIGHT "Copyright 2011 The Montserrat Project Authors (https://github.com/JulietaUla/Montserrat)"
FONT_VERSION "7.200"
FONT_ASCENT 18
FONT_DESCENT 4
UNDERLINE_POSITION -2
UNDERLINE_THICKNESS 2
X_HEIGHT 11
CAP_HEIGHT 15
RAW_ASCENT 800
RAW_DESCENT 200
NORM_SPACE 6
RELATIVE_WEIGHT 50
RELATIVE_SETWIDTH 50
SUPERSCRIPT_X 0
SUPERSCRIPT_Y 7
SUPERSCRIPT_SIZE 13
SUBSCRIPT_X 0
SUBSCRIPT_Y 1
SUBSCRIPT_SIZE 13
AVG_LOWERCASE_WIDTH 130
AVG_UPPERCASE_WIDTH 164
ENDPROPERTIES
CHARS 95
STARTCHAR space
ENCODING 32
SWIDTH 269 0
DWIDTH 6 0
BBX 1 1 0 0
BITMAP
00
ENDCHAR
STARTCHAR exclam
ENCODING 33
SWIDTH 268 0
DWIDTH 6 0
BBX 2 16 2 0
BITMAP
C0
C0
C0
C0
C0
C0
C0
C0
C0
C0
C0
00
00
C0
C0
C0
ENDCHAR
STARTCHAR quotedbl
ENCODING 34
SWIDTH 391 0
DWIDTH 9 0
BBX 6 6 1 10
BITMAP
CC
CC
CC
CC
CC
4C
ENDCHAR
STARTCHAR numbersign
ENCODING 35
SWIDTH 703 0
DWIDTH 15 0
BBX 14 16 1 0
BITMAP
0C20
0820
0860
0860
FFFC
FFFC
1860
1840
1840
1040
FFF8
FFF8
10C0
30C0
30C0
3080
ENDCHAR
STARTCHAR dollar
ENCODING 36
SWIDTH 621 0
DWIDTH 14 0
BBX 12 21 1 -2
BITMAP
0600
0600
0600
1FC0
7FE0
6660
E600
C600
E600
7600
3F00
0FC0
07E0
0670
0630
8670
C660
FFE0
3F80
0600
0600
ENDCHAR
STARTCHAR percent
ENCODING 37
SWIDTH 843 0
DWIDTH 19 0
BBX 17 16 1 0
BITMAP
380C00
7C0800
C61800
863000
822000
826000
86C000
448000
799E00
033300
022180
062180
0C2180
0C2180
183300
301E00
ENDCHAR
STARTCHAR ampersand
ENCODING 38
SWIDTH 686 0
DWIDTH 15 0
BBX 14 16 1 0
BITMAP
0F00
1F80
30C0
30C0
30C0
3980
1F00
1E00
3F10
6398
C1D8
C0F0
C070
E0F8
7FDC
1F08
ENDCHAR
STARTCHAR quotesingle
ENCODING 39
SWIDTH 210 0
DWIDTH 5 0
BBX 2 6 1 10
BITMAP
C0
C0
C0
C0
C0
40
ENDCHAR
STARTCHAR parenleft
ENCODING 40
SWIDTH 337 0
DWIDTH 7 0
BBX 5 21 2 -4
BITMAP
38
30
70
60
60
60
C0
C0
C0
C0
C0
C0
C0
C0
C0
60
60
60
70
30
38
ENDCHAR
STARTCHAR parenright
ENCODING 41
SWIDTH 338 0
DWIDTH 7 0
BBX 4 21 1 -4
BITMAP
C0
E0
60
60
30
30
30
30
30
30
30
30
30
30
30
30
30
60
60
E0
C0
ENDCHAR
STARTCHAR asterisk
ENCODING 42
SWIDTH 400 0
DWIDTH 9 0
BBX 8 8 0 9
BITMAP
08
49
EB
3E
3E
EB
49
08
ENDCHAR
STARTCHAR plus
ENCODING 43
SWIDTH 582 0
DWIDTH 13 0
BBX 10 10 1 3
BITMAP
0C00
0C00
0C00
0C00
FFC0
FFC0
0C00
0C00
0C00
0C00
ENDCHAR
STARTCHAR comma
ENCODING 44
SWIDTH 227 0
DWIDTH 5 0
BBX 3 6 1 -3
BITMAP
E0
E0
E0
40
40
C0
ENDCHAR
STARTCHAR hyphen
ENCODING 45
SWIDTH 383 0
DWIDTH 8 0
BBX 6 2 1 5
BITMAP
FC
FC
ENDCHAR
STARTCHAR period
ENCODING 46
SWIDTH 227 0
DWIDTH 5 0
BBX 3 3 1 0
BITMAP
E0
E0
E0
ENDCHAR
STARTCHAR slash
ENCODING 47
SWIDTH 352 0
DWIDTH 8 0
BBX 10 21 -1 -2
BITMAP
01C0
0180
0180
0300
0300
0300
0600
0600
0600
0C00
0C00
0C00
1800
1800
1800
3000
3000
3000
6000
6000
C000
ENDCHAR
STARTCHAR zero
ENCODING 48
SWIDTH 667 0
DWIDTH 15 0
BBX 13 16 1 0
BITMAP
0F80
3FC0
30E0
6070
6030
C030
C038
C038
C038
C038
C030
6030
6070
30E0
3FC0
0F80
ENDCHAR
STARTCHAR one
ENCODING 49
SWIDTH 370 0
DWIDTH 8 0
BBX 6 16 0 0
BITMAP
FC
FC
0C
0C
0C
0C
0C
0C
0C
0C
0C
0C
0C
0C
0C
0C
ENDCHAR
STARTCHAR two
ENCODING 50
SWIDTH 574 0
DWIDTH 13 0
BBX 12 16 0 0
BITMAP
1F80
7FC0
E0E0
4060
0060
0060
00E0
00C0
01C0
0380
0700
0E00
1C00
3800
7FF0
7FF0
ENDCHAR
STARTCHAR three
ENCODING 51
SWIDTH 572 0
DWIDTH 13 0
BBX 12 16 0 0
BITMAP
7FE0
7FE0
00C0
0180
0380
0700
0600
0FC0
03E0
0060
0070
0070
4060
60E0
FFC0
3F80
ENDCHAR
STARTCHAR four
ENCODING 52
SWIDTH 669 0
DWIDTH 15 0
BBX 13 16 1 0
BITMAP
01C0
0180
0300
0600
0E00
0C00
1800
30E0
70E0
60E0
FFF8
FFF8
00E0
00E0
00E0
00E0
ENDCHAR
STARTCHAR five
ENCODING 53
SWIDTH 574 0
DWIDTH 13 0
BBX 12 16 0 0
BITMAP
3FE0
3FE0
3000
3000
3000
3000
3F00
3FC0
40E0
0070
0030
0030
4070
60E0
FFC0
1F80
ENDCHAR
STARTCHAR six
ENCODING 54
SWIDTH 617 0
DWIDTH 14 0
BBX 12 16 1 0
BITMAP
0FC0
1FE0
3820
7000
6000
E000
C780
DFE0
F0E0
E070
E030
E030
6030
7060
3FE0
0F80
ENDCHAR
STARTCHAR seven
ENCODING 55
SWIDTH 598 0
DWIDTH 13 0
BBX 11 16 1 0
BITMAP
FFE0
FFE0
C060
C0C0
C0C0
01C0
0180
0380
0300
0300
0600
0600
0E00
0C00
1C00
1800
ENDCHAR
STARTCHAR eight
ENCODING 56
SWIDTH 644 0
DWIDTH 14 0
BBX 12 16 1 0
BITMAP
1F80
3FC0
70E0
6070
6070
6070
70E0
3FC0
7FE0
6070
C030
C030
C030
E070
7FE0
1F80
ENDCHAR
STARTCHAR nine
ENCODING 57
SWIDTH 617 0
DWIDTH 14 0
BBX 12 16 1 0
BITMAP
1F00
7F80
E1C0
C0E0
C060
C060
C0E0
E1F0
7FE0
1E60
0060
0060
00C0
41C0
7F80
FE00
ENDCHAR
STARTCHAR colon
ENCODING 58
SWIDTH 227 0
DWIDTH 5 0
BBX 3 12 1 0
BITMAP
E0
E0
E0
00
00
00
00
00
00
E0
E0
E0
ENDCHAR
STARTCHAR semicolon
ENCODING 59
SWIDTH 227 0
DWIDTH 5 0
BBX 3 15 1 -3
BITMAP
E0
E0
E0
00
00
00
00
00
00
E0
E0
E0
40
40
C0
ENDCHAR
STARTCHAR less
ENCODING 60
SWIDTH 582 0
DWIDTH 13 0
BBX 10 10 1 3
BITMAP
0040
00C0
07C0
1E00
F800
E000
7C00
0F00
03C0
0040
ENDCHAR
STARTCHAR equal
ENCODING 61
SWIDTH 582 0
DWIDTH 13 0
BBX 10 7 1 4
BITMAP
FFC0
FFC0
0000
0000
0000
FFC0
FFC0
ENDCHAR
STARTCHAR greater
ENCODING 62
SWIDTH 582 0
DWIDTH 13 0
BBX 10 10 1 3
BITMAP
8000
E000
7C00
0F00
03C0
00C0
07C0
1E00
F800
C000
ENDCHAR
STARTCHAR question
ENCODING 63
SWIDTH 573 0
DWIDTH 13 0
BBX 11 16 0 0
BITMAP
1F80
7FC0
E0E0
4060
0060
0060
00C0
0180
0300
0700
0600
0000
0000
0600
0700
0600
ENDCHAR
STARTCHAR at
ENCODING 64
SWIDTH 1034 0
DWIDTH 23 0
BBX 21 20 1 -4
BITMAP
01FC00
07FF00
1E03C0
3800E0
30F360
63FB30
430F30
C60710
C60318
C60318
C60318
C60318
C60710
470710
63FFF0
30F1E0
380000
1E0200
07FE00
01F800
ENDCHAR
STARTCHAR A
ENCODING 65
SWIDTH 800 0
DWIDTH 18 0
BBX 13 16 2 0
BITMAP
0FC0
3FE0
7070
6038
E018
C018
C018
C018
C018
C018
FFF8
FFF8
C018
C018
C018
C018
ENDCHAR
STARTCHAR B
ENCODING 66
SWIDTH 757 0
DWIDTH 17 0
BBX 14 16 2 0
BITMAP
FFC0
FFF0
E030
E038
E018
E038
E030
FFE0
FFF0
E038
E018
E01C
E018
E038
FFF8
FFE0
ENDCHAR
STARTCHAR C
ENCODING 67
SWIDTH 723 0
DWIDTH 16 0
BBX 14 16 1 0
BITMAP
07E0
1FF8
3C1C
7008
6000
E000
C000
C000
C000
C000
E000
6000
7008
3C1C
1FF8
07E0
ENDCHAR
STARTCHAR D
ENCODING 68
SWIDTH 826 0
DWIDTH 18 0
BBX 15 16 2 0
BITMAP
FFC0
FFF0
E038
E01C
E00C
E00E
E006
E006
E006
E006
E00E
E00C
E01C
E038
FFF0
FFC0
ENDCHAR
STARTCHAR E
ENCODING 69
SWIDTH 644 0
DWIDTH 14 0
BBX 13 16 1 0
BITMAP
0FE0
3FF0
7030
6000
6000
6000
7000
3FC0
3FC0
6000
C000
C000
E008
7030
7FF8
1FC0
ENDCHAR
STARTCHAR F
ENCODING 70
SWIDTH 606 0
DWIDTH 13 0
BBX 11 16 2 0
BITMAP
0FC0
3FE0
7040
6000
E000
C000
C000
C000
FF80
FF80
C000
C000
C000
C000
C000
C000
ENDCHAR
STARTCHAR G
ENCODING 71
SWIDTH 772 0
DWIDTH 17 0
BBX 14 16 1 0
BITMAP
07E0
1FF8
3C1C
7008
6000
E000
C000
C000
C00C
C00C
E00C
600C
700C
381C
1FFC
07EC
ENDCHAR
STARTCHAR H
ENCODING 72
SWIDTH 812 0
DWIDTH 18 0
BBX 14 16 2 0
BITMAP
E01C
E01C
E01C
E01C
E01C
E01C
E01C
FFFC
FFFC
E01C
E01C
E01C
E01C
E01C
E01C
E01C
ENDCHAR
STARTCHAR I
ENCODING 73
SWIDTH 456 0
DWIDTH 10 0
BBX 8 16 1 0
BITMAP
FF
FF
18
18
18
18
18
18
18
18
18
18
18
18
FF
FF
ENDCHAR
STARTCHAR J
ENCODING 74
SWIDTH 511 0
DWIDTH 11 0
BBX 9 18 0 -2
BITMAP
7F80
7F80
0180
0180
0180
0180
0180
0180
0180
0180
0180
0180
0180
0180
4180
C380
FF00
3E00
ENDCHAR
STARTCHAR K
ENCODING 75
SWIDTH 719 0
DWIDTH 16 0
BBX 14 16 2 0
BITMAP
E038
E070
E060
E0C0
E180
E300
E600
EE00
FF00
FB80
F180
E1C0
E0E0
E070
E038
E01C
ENDCHAR
STARTCHAR L
ENCODING 76
SWIDTH 594 0
DWIDTH 13 0
BBX 11 16 2 0
BITMAP
E000
E000
E000
E000
E000
E000
E000
E000
E000
E000
E000
E000
E000
E000
FFE0
FFE0
ENDCHAR
STARTCHAR M
ENCODING 77
SWIDTH 1227 0
DWIDTH 27 0
BBX 23 16 2 0
BITMAP
C7C3F0
DFE7F8
F07C1C
E0380C
E0380E
E03806
E03806
E03806
E03806
E03806
E03806
E03806
E03806
E03806
E03806
E03806
ENDCHAR
STARTCHAR N
ENCODING 78
SWIDTH 798 0
DWIDTH 18 0
BBX 13 16 2 0
BITMAP
C7C0
DFF0
F870
E038
E018
E018
E018
E018
E018
E018
E018
E018
E018
E018
E018
E018
ENDCHAR
STARTCHAR O
ENCODING 79
SWIDTH 840 0
DWIDTH 18 0
BBX 16 16 1 0
BITMAP
07E0
1FF8
3C1C
700E
6007
E003
C003
C003
C003
C003
E003
6007
700E
3C1C
1FF8
07E0
ENDCHAR
STARTCHAR P
ENCODING 80
SWIDTH 722 0
DWIDTH 16 0
BBX 13 16 2 0
BITMAP
FF80
FFE0
E070
E030
E038
E018
E038
E030
E070
FFE0
FF80
E000
E000
E000
E000
E000
ENDCHAR
STARTCHAR Q
ENCODING 81
SWIDTH 840 0
DWIDTH 18 0
BBX 16 19 1 -3
BITMAP
07E0
1FF8
381C
700E
6007
E003
C003
C003
C003
C003
E183
6187
718E
3D9C
1FF8
07E0
0180
0180
0180
ENDCHAR
STARTCHAR R
ENCODING 82
SWIDTH 727 0
DWIDTH 16 0
BBX 13 16 2 0
BITMAP
FF80
FFE0
E070
E030
E038
E018
E038
E030
E070
FFE0
FF80
E0C0
E0E0
E060
E030
E038
ENDCHAR
STARTCHAR S
ENCODING 83
SWIDTH 621 0
DWIDTH 14 0
BBX 12 16 1 0
BITMAP
1F80
3FE0
6060
E000
C000
E000
7000
3F00
0FC0
01E0
0070
0030
8070
E060
FFE0
1F80
ENDCHAR
STARTCHAR T
ENCODING 84
SWIDTH 598 0
DWIDTH 13 0
BBX 13 16 0 0
BITMAP
1FC0
7FF8
F738
8708
0700
0700
0700
0700
0700
0700
0700
0700
0700
0700
0700
0700
ENDCHAR
STARTCHAR U
ENCODING 85
SWIDTH 794 0
DWIDTH 17 0
BBX 13 16 2 0
BITMAP
C018
C018
C018
C018
C018
C018
C018
C018
C018
C018
C018
E018
6038
7078
3FD8
1F98
ENDCHAR
STARTCHAR V
ENCODING 86
SWIDTH 712 0
DWIDTH 16 0
BBX 16 16 0 0
BITMAP
E007
6006
600E
700C
300C
3818
1818
1C38
0C30
0C70
0E60
0660
07C0
03C0
03C0
0180
ENDCHAR
STARTCHAR W
ENCODING 87
SWIDTH 1190 0
DWIDTH 26 0
BBX 22 16 2 0
BITMAP
C0300C
C0300C
C0300C
C0300C
C0300C
C0300C
C0300C
C0300C
C0300C
C0300C
C0300C
E0300C
60781C
70FC38
3FCFF0
1F87E0
ENDCHAR
STARTCHAR X
ENCODING 88
SWIDTH 673 0
DWIDTH 15 0
BBX 15 16 0 0
BITMAP
601C
3018
3830
1C70
0C60
0EC0
07C0
0380
0380
07C0
0EE0
1C60
1830
3838
7018
E00E
ENDCHAR
STARTCHAR Y
ENCODING 89
SWIDTH 787 0
DWIDTH 17 0
BBX 13 18 2 -2
BITMAP
C018
C018
C018
C018
C018
C018
C018
E018
6038
7078
3FD8
0F98
0018
0018
4030
E070
7FE0
1F80
ENDCHAR
STARTCHAR Z
ENCODING 90
SWIDTH 667 0
DWIDTH 15 0
BBX 13 16 1 0
BITMAP
FFF8
FFF0
0070
0060
00C0
01C0
0380
7FE0
7FE0
0E00
1C00
1800
3000
6000
FFF8
FFF8
ENDCHAR
STARTCHAR bracketleft
ENCODING 91
SWIDTH 333 0
DWIDTH 7 0
BBX 5 21 2 -4
BITMAP
F8
F8
C0
C0
C0
C0
C0
C0
C0
C0
C0
C0
C0
C0
C0
C0
C0
C0
C0
F8
F8
ENDCHAR
STARTCHAR backslash
ENCODING 92
SWIDTH 352 0
DWIDTH 8 0
BBX 9 21 -1 -2
BITMAP
C000
6000
6000
6000
3000
3000
3000
1800
1800
1800
0C00
0C00
0C00
0600
0600
0200
0300
0300
0100
0180
0180
ENDCHAR
STARTCHAR bracketright
ENCODING 93
SWIDTH 333 0
DWIDTH 7 0
BBX 5 21 0 -4
BITMAP
F8
F8
18
18
18
18
18
18
18
18
18
18
18
18
18
18
18
18
18
F8
F8
ENDCHAR
STARTCHAR asciicircum
ENCODING 94
SWIDTH 583 0
DWIDTH 13 0
BBX 9 10 2 3
BITMAP
0800
1C00
1C00
3600
3600
6200
6300
4300
C180
C180
ENDCHAR
STARTCHAR underscore
ENCODING 95
SWIDTH 500 0
DWIDTH 11 0
BBX 11 2 0 -1
BITMAP
FFE0
FFE0
ENDCHAR
STARTCHAR grave
ENCODING 96
SWIDTH 600 0
DWIDTH 13 0
BBX 5 3 3 14
BITMAP
E0
70
18
ENDCHAR
STARTCHAR a
ENCODING 97
SWIDTH 682 0
DWIDTH 15 0
BBX 12 12 1 0
BITMAP
1F30
3FF0
70F0
E070
C030
C030
C030
C030
E070
70F0
3FF0
1F30
ENDCHAR
STARTCHAR b
ENCODING 98
SWIDTH 682 0
DWIDTH 15 0
BBX 12 17 2 0
BITMAP
C000
C000
C000
C000
C000
CF80
FFC0
F0E0
E070
C030
C030
C030
C030
E070
F0E0
FFC0
CF80
ENDCHAR
STARTCHAR c
ENCODING 99
SWIDTH 571 0
DWIDTH 13 0
BBX 11 12 1 0
BITMAP
1F80
3FC0
70E0
E040
C000
C000
C000
C000
E040
70E0
3FC0
1F80
ENDCHAR
STARTCHAR d
ENCODING 100
SWIDTH 682 0
DWIDTH 15 0
BBX 12 17 1 0
BITMAP
0030
0030
0030
0030
0030
1F30
3FF0
70F0
E070
C030
C030
C030
C030
E070
70F0
3FF0
1F30
ENDCHAR
STARTCHAR e
ENCODING 101
SWIDTH 612 0
DWIDTH 13 0
BBX 12 12 1 0
BITMAP
1F00
3FC0
70E0
E060
C060
C3F0
FF00
E000
E000
7040
3FE0
1F80
ENDCHAR
STARTCHAR f
ENCODING 102
SWIDTH 339 0
DWIDTH 7 0
BBX 6 17 2 0
BITMAP
3C
7C
C0
C0
C0
F8
F8
C0
C0
C0
C0
C0
C0
C0
C0
C0
C0
ENDCHAR
STARTCHAR g
ENCODING 103
SWIDTH 690 0
DWIDTH 15 0
BBX 12 16 1 -4
BITMAP
1F30
3FF0
70F0
E030
C030
C030
C030
E070
70F0
3FF0
1F30
0030
0030
6060
7FE0
1F80
ENDCHAR
STARTCHAR h
ENCODING 104
SWIDTH 681 0
DWIDTH 15 0
BBX 11 17 2 0
BITMAP
C000
C000
C000
C000
C000
CF80
FFC0
F0E0
E060
C060
C060
C060
C060
C060
C060
C060
C060
ENDCHAR
STARTCHAR i
ENCODING 105
SWIDTH 279 0
DWIDTH 6 0
BBX 2 17 2 0
BITMAP
C0
C0
C0
00
00
C0
C0
C0
C0
C0
C0
C0
C0
C0
C0
C0
C0
ENDCHAR
STARTCHAR j
ENCODING 106
SWIDTH 284 0
DWIDTH 6 0
BBX 7 21 -2 -4
BITMAP
0C
0E
0C
00
00
0C
0C
0C
0C
0C
0C
0C
0C
0C
0C
0C
0C
0C
0C
FC
F8
ENDCHAR
STARTCHAR k
ENCODING 107
SWIDTH 616 0
DWIDTH 14 0
BBX 12 17 2 0
BITMAP
C000
C000
C000
C000
C000
C0E0
C1C0
C380
C700
CE00
DC00
FE00
E700
C380
C1C0
C0C0
C070
ENDCHAR
STARTCHAR l
ENCODING 108
SWIDTH 321 0
DWIDTH 7 0
BBX 5 17 2 0
BITMAP
C0
C0
C0
C0
C0
C0
C0
C0
C0
C0
C0
C0
C0
C0
C0
78
38
ENDCHAR
STARTCHAR m
ENCODING 109
SWIDTH 1057 0
DWIDTH 23 0
BBX 19 12 2 0
BITMAP
CF0F80
FFDFC0
E0F0E0
E0E060
C06060
C06060
C06060
C06060
C06060
C06060
C06060
C06060
ENDCHAR
STARTCHAR n
ENCODING 110
SWIDTH 681 0
DWIDTH 15 0
BBX 11 12 2 0
BITMAP
CF80
FFC0
F0E0
E060
C060
C060
C060
C060
C060
C060
C060
C060
ENDCHAR
STARTCHAR o
ENCODING 111
SWIDTH 635 0
DWIDTH 14 0
BBX 12 12 1 0
BITMAP
1F80
3FC0
70E0
E070
C030
C030
C030
C030
E070
70E0
3FC0
1F80
ENDCHAR
STARTCHAR p
ENCODING 112
SWIDTH 682 0
DWIDTH 15 0
BBX 12 16 2 -4
BITMAP
CF80
FFC0
F0E0
E070
C030
C030
C030
C030
E070
F0E0
FFC0
CF80
C000
C000
C000
C000
ENDCHAR
STARTCHAR q
ENCODING 113
SWIDTH 682 0
DWIDTH 15 0
BBX 12 16 1 -4
BITMAP
1F30
3FF0
70F0
E070
C030
C030
C030
C030
E070
70F0
3FF0
1F30
0030
0030
0030
0030
ENDCHAR
STARTCHAR r
ENCODING 114
SWIDTH 410 0
DWIDTH 9 0
BBX 6 12 2 0
BITMAP
CC
FC
F0
E0
C0
C0
C0
C0
C0
C0
C0
C0
ENDCHAR
STARTCHAR s
ENCODING 115
SWIDTH 501 0
DWIDTH 11 0
BBX 9 12 1 0
BITMAP
3F00
7F80
C100
C000
E000
7C00
3F80
0180
0180
8180
FF80
7E00
ENDCHAR
STARTCHAR t
ENCODING 116
SWIDTH 395 0
DWIDTH 9 0
BBX 6 15 2 0
BITMAP
C0
C0
C0
F8
F8
C0
C0
C0
C0
C0
C0
C0
C0
FC
7C
ENDCHAR
STARTCHAR u
ENCODING 117
SWIDTH 677 0
DWIDTH 15 0
BBX 11 12 2 0
BITMAP
C060
C060
C060
C060
C060
C060
C060
C060
C0E0
E1E0
7FE0
3E60
ENDCHAR
STARTCHAR v
ENCODING 118
SWIDTH 559 0
DWIDTH 12 0
BBX 12 12 0 0
BITMAP
C030
6030
6060
7060
30C0
30C0
19C0
1980
0D80
0F00
0F00
0600
ENDCHAR
STARTCHAR w
ENCODING 119
SWIDTH 985 0
DWIDTH 22 0
BBX 18 12 2 0
BITMAP
C0C0C0
C0C0C0
C0C0C0
C0C0C0
C0C0C0
C0C0C0
C0C0C0
C0C0C0
C1C1C0
E1E180
7F7F80
3E3E00
ENDCHAR
STARTCHAR x
ENCODING 120
SWIDTH 552 0
DWIDTH 12 0
BBX 12 12 0 0
BITMAP
6070
30C0
39C0
1980
0F00
0700
0F00
0F00
1980
38C0
70E0
E070
ENDCHAR
STARTCHAR y
ENCODING 121
SWIDTH 677 0
DWIDTH 15 0
BBX 11 16 2 -4
BITMAP
C060
C060
C060
C060
C060
C060
C060
C0E0
E1E0
7FE0
3E60
0060
00E0
C1C0
FF80
3F00
ENDCHAR
STARTCHAR z
ENCODING 122
SWIDTH 531 0
DWIDTH 12 0
BBX 10 12 1 0
BITMAP
FFC0
FFC0
0380
0300
0600
7F80
7F80
3800
3000
6000
FFC0
FFC0
ENDCHAR
STARTCHAR braceleft
ENCODING 123
SWIDTH 351 0
DWIDTH 8 0
BBX 6 21 1 -4
BITMAP
1C
3C
30
30
30
30
30
30
30
30
F0
F0
30
30
30
30
30
30
30
3C
1C
ENDCHAR
STARTCHAR bar
ENCODING 124
SWIDTH 299 0
DWIDTH 7 0
BBX 2 21 2 -4
BITMAP
C0
C0
C0
C0
C0
C0
C0
C0
C0
C0
C0
C0
C0
C0
C0
C0
C0
C0
C0
C0
C0
ENDCHAR
STARTCHAR braceright
ENCODING 125
SWIDTH 351 0
DWIDTH 8 0
BBX 6 21 0 -4
BITMAP
E0
F0
38
18
18
18
18
18
18
18
1C
1C
18
18
18
18
18
18
38
F0
E0
ENDCHAR
STARTCHAR asciitilde
ENCODING 126
SWIDTH 582 0
DWIDTH 13 0
BBX 11 4 1 6
BITMAP
3860
7C40
CFC0
C380
ENDCHAR
ENDFONT
